<?xml version="1.0" encoding="UTF-8"?>
<svg version="1.1" xmlns="http://www.w3.org/2000/svg" width="512" height="512">
<path d="M0 0 C0.90516357 -0.02618408 1.81032715 -0.05236816 2.74291992 -0.0793457 C9.36156265 -0.09602046 14.89457242 1.18747497 19.8112793 5.8581543 C23.31873377 9.88329586 24.37389438 12.96977365 24.38142776 18.19395161 C24.38526891 19.19247569 24.38911005 20.19099978 24.3930676 21.21978217 C24.39220112 22.31976214 24.39133463 23.41974211 24.39044189 24.55305481 C24.39341302 25.71928066 24.39638414 26.88550652 24.3994453 28.08707255 C24.40663268 31.32956941 24.40930516 34.57203402 24.41004276 37.81453764 C24.41189238 41.3095259 24.41943924 44.80450264 24.42617798 48.29948425 C24.4397655 55.94409218 24.44578663 63.58869486 24.45018864 71.23331285 C24.45295028 76.00556121 24.45718748 80.77780755 24.46169281 85.55005455 C24.47388588 98.75997827 24.48418521 111.96990037 24.4875679 125.1798296 C24.48789725 126.44826272 24.48789725 126.44826272 24.48823325 127.74232076 C24.48845153 128.58997883 24.48866981 129.43763689 24.4888947 130.31098157 C24.48933817 132.02869149 24.48978473 133.74640141 24.49023438 135.46411133 C24.49056652 136.74217951 24.49056652 136.74217951 24.49090537 138.04606726 C24.49485396 151.85434803 24.51230964 165.66257605 24.5355939 179.47083644 C24.5593001 193.64357802 24.57176941 207.81629312 24.57293582 221.98905486 C24.57385298 229.94815963 24.57961554 237.90719566 24.59775543 245.86628151 C24.61314654 252.64324349 24.61828275 259.42011549 24.61001733 266.19709162 C24.60610732 269.6550536 24.60705732 273.11283433 24.62107468 276.57077408 C24.63371944 280.31933809 24.6279576 284.06743398 24.61749268 287.81599426 C24.62957728 289.45592597 24.62957728 289.45592597 24.64190602 291.12898761 C24.59966984 297.5789532 24.08942103 302.29680947 19.53125 307.23828125 C18.9434375 307.71652344 18.355625 308.19476563 17.75 308.6875 C17.1621875 309.17863281 16.574375 309.66976563 15.96875 310.17578125 C12.04883285 312.91081435 7.60439622 312.69365865 3.0078125 312.953125 C1.29868014 313.05915319 -0.41038335 313.1662959 -2.11938477 313.27441406 C-3.46675217 313.35906921 -3.46675217 313.35906921 -4.84133911 313.44543457 C-58.43319181 316.90248068 -109.31268644 330.35390433 -150.03759766 366.88037109 C-151.6260437 368.26680774 -153.23620711 369.62010065 -154.85702515 370.96841431 C-155.81170685 371.76258759 -156.76638855 372.55676086 -157.75 373.375 C-157.88738366 336.09140988 -157.99308358 298.80785793 -158.05639198 261.52406583 C-158.06389607 257.12069842 -158.07166201 252.71733151 -158.07958984 248.31396484 C-158.08116371 247.43734721 -158.08273757 246.56072957 -158.08435912 245.65754776 C-158.11045504 231.47020025 -158.15775588 217.28299888 -158.21291678 203.09573801 C-158.26905938 188.53435904 -158.30235976 173.97305652 -158.31453097 159.41157377 C-158.32275681 150.42890413 -158.34872105 141.44664753 -158.3974988 132.46410505 C-158.42925596 126.30138937 -158.43879127 120.13888669 -158.43100826 113.97609515 C-158.42717151 110.42225552 -158.43298188 106.86913677 -158.46523285 103.31542587 C-158.49999819 99.45632737 -158.48789004 95.5981598 -158.4715271 91.73892212 C-158.48900415 90.62411173 -158.5064812 89.50930135 -158.52448785 88.36070883 C-158.43499276 80.53941457 -156.35568423 75.64399387 -151.75 69.375 C-151.17479972 68.58519324 -150.59959944 67.79538648 -150.00696886 66.98164618 C-145.63942569 61.11923732 -140.72914075 55.71910395 -135.75 50.375 C-134.81220703 49.35599609 -134.81220703 49.35599609 -133.85546875 48.31640625 C-100.37447729 13.28471624 -46.77796335 0.80159513 0 0 Z " fill="#A2A4A4" transform="translate(427.75,59.625)"/>
<path d="M0 0 C0.96043213 0.00491455 1.92086426 0.0098291 2.91040039 0.01489258 C36.79759509 0.54510224 71.4775078 7.97347442 101.3125 24.3125 C102.30121094 24.81394531 103.28992188 25.31539062 104.30859375 25.83203125 C116.46258382 32.09004316 126.48417492 40.95765627 136.3125 50.3125 C136.95832031 50.90546875 137.60414063 51.4984375 138.26953125 52.109375 C143.97371973 57.50631211 148.88006093 63.84324552 153.3125 70.3125 C153.74476227 70.93217948 154.17702455 71.55185897 154.62238568 72.19031662 C158.6770883 78.63809831 159.01144016 84.06071521 158.91377258 91.5561676 C158.92018077 93.36854893 158.92018077 93.36854893 158.92671841 95.21754402 C158.93350147 98.54982826 158.91798989 101.88062598 158.89282811 105.21272957 C158.87114901 108.81383053 158.87854877 112.4148891 158.88233948 116.01603699 C158.88495579 122.24802482 158.8693257 128.47975004 158.84115028 134.71167183 C158.80044065 143.72183508 158.78748546 152.73187191 158.78121033 161.74211716 C158.77027882 176.36208556 158.73703575 190.98191412 158.68969727 205.60180664 C158.64377201 219.80004173 158.60839464 233.99823879 158.5871582 248.1965332 C158.58584459 249.07234539 158.58453097 249.94815758 158.58317754 250.85050953 C158.57665215 255.24439053 158.57033366 259.6382718 158.56411803 264.03215325 C158.51232066 300.45903421 158.42428662 336.8857562 158.3125 373.3125 C157.2125717 372.37244335 156.11304082 371.43192168 155.01367188 370.49121094 C154.4013269 369.96750916 153.78898193 369.44380737 153.15808105 368.90423584 C151.45559268 367.4359114 149.77077966 365.95039441 148.09375 364.453125 C108.62157256 329.47853597 57.77676181 316.5810157 6.23852539 313.65576172 C3.55795423 313.50024912 0.87872394 313.32903085 -1.80078125 313.15625 C-2.60703445 313.11552368 -3.41328766 313.07479736 -4.24397278 313.03283691 C-9.85942536 312.66181853 -14.28115459 311.53218969 -18.55078125 307.59375 C-19.02902344 307.0059375 -19.50726563 306.418125 -20 305.8125 C-20.49113281 305.2246875 -20.98226562 304.636875 -21.48828125 304.03125 C-23.66393317 300.9130518 -23.81362379 298.17169454 -23.81892776 294.49354839 C-23.82276891 293.49502431 -23.82661005 292.49650022 -23.8305676 291.46771783 C-23.82970112 290.36773786 -23.82883463 289.26775789 -23.82794189 288.13444519 C-23.83091302 286.96821934 -23.83388414 285.80199348 -23.8369453 284.60042745 C-23.84413268 281.35793059 -23.84680516 278.11546598 -23.84754276 274.87296236 C-23.84939238 271.3779741 -23.85693924 267.88299736 -23.86367798 264.38801575 C-23.8772655 256.74340782 -23.88328663 249.09880514 -23.88768864 241.45418715 C-23.89045028 236.68193879 -23.89468748 231.90969245 -23.89919281 227.13744545 C-23.91138588 213.92752173 -23.92168521 200.71759963 -23.9250679 187.5076704 C-23.92528747 186.66204832 -23.92550703 185.81642624 -23.92573325 184.94517924 C-23.92595153 184.09752117 -23.92616981 183.24986311 -23.9263947 182.37651843 C-23.92683817 180.65880851 -23.92728473 178.94109859 -23.92773438 177.22338867 C-23.9279558 176.37134321 -23.92817723 175.51929776 -23.92840537 174.64143274 C-23.93235396 160.83315197 -23.94980964 147.02492395 -23.9730939 133.21666356 C-23.9968001 119.04392198 -24.00926941 104.87120688 -24.01043582 90.69844514 C-24.01135298 82.73934037 -24.01711554 74.78030434 -24.03525543 66.82121849 C-24.05064654 60.04425651 -24.05578275 53.26738451 -24.04751733 46.49040838 C-24.04360732 43.0324464 -24.04455732 39.57466567 -24.05857468 36.11672592 C-24.07121944 32.36816191 -24.0654576 28.62006602 -24.05499268 24.87150574 C-24.06304908 23.77821793 -24.07110548 22.68493013 -24.07940602 21.55851239 C-24.04345441 16.06827453 -23.86515186 12.01061568 -20.6875 7.3125 C-14.03327025 0.94758458 -8.86231227 -0.05432172 0 0 Z " fill="#A2A4A4" transform="translate(83.6875,59.6875)"/>
<path d="M0 0 C2.56912195 -0.03385125 5.13779354 -0.05859662 7.70703125 -0.078125 C8.79280457 -0.09383545 8.79280457 -0.09383545 9.9005127 -0.10986328 C16.82370352 -0.1493229 20.99070146 1.06067427 26.8125 4.8125 C31.90295275 9.90295275 32.35053115 14.78348996 32.40123022 21.67696905 C32.39119197 23.4130504 32.39119197 23.4130504 32.38095093 25.1842041 C32.3856309 26.42241362 32.39031087 27.66062314 32.39513266 28.93635416 C32.40502131 32.36606576 32.40147202 35.79528382 32.39217401 39.22496533 C32.38538431 42.92645791 32.39586434 46.62790746 32.40411377 50.32939148 C32.41745416 57.57772677 32.41457202 64.82596886 32.40587585 72.0743078 C32.39910091 77.96513978 32.39818176 83.85594564 32.4014473 89.7467804 C32.401907 90.58516957 32.40236669 91.42355875 32.40284032 92.28735366 C32.4037995 93.99052108 32.40477214 95.69368849 32.4057581 97.39685589 C32.41431289 113.36775406 32.40447647 129.33860057 32.388357 145.30949026 C32.37495373 159.01348162 32.3772818 172.71739674 32.39111328 186.42138672 C32.40716752 202.33510579 32.4134889 218.24877959 32.40427649 234.16250563 C32.40332084 235.85941028 32.40237773 237.55631494 32.4014473 239.2532196 C32.40098447 240.08813082 32.40052164 240.92304203 32.40004479 241.78325358 C32.39745444 247.66706231 32.40182688 253.55084232 32.40888596 259.43464661 C32.41729942 266.60497356 32.41502407 273.77520199 32.39904372 280.94551766 C32.39115891 284.60398921 32.38807291 288.26229649 32.39799118 291.92076683 C32.40857818 295.88586944 32.39593751 299.85070298 32.38095093 303.8157959 C32.38764309 304.97318347 32.39433526 306.13057103 32.40123022 307.32303095 C32.35994306 312.93678615 32.2880799 317.21373959 29 322 C23.53592837 327.22650329 19.53079203 329.28990346 11.95581055 329.2253418 C6.04364142 328.77461642 0.24886404 327.42488473 -5.55154419 326.23614502 C-19.16357055 323.46265743 -32.75717906 321.18019113 -46.5625 319.625 C-47.25971161 319.54600464 -47.95692322 319.46700928 -48.67526245 319.38562012 C-53.11372867 318.88857196 -57.5537693 318.42180546 -62 318 C-63.33446671 317.87117432 -63.33446671 317.87117432 -64.69589233 317.73974609 C-71.88110862 317.08657787 -79.00579481 316.82700635 -86.21875 316.796875 C-87.34735443 316.78986069 -88.47595886 316.78284637 -89.63876343 316.77561951 C-93.25921667 316.75821662 -96.87950647 316.75176779 -100.5 316.75 C-101.73542542 316.74932526 -102.97085083 316.74865051 -104.24371338 316.74795532 C-128.19389049 316.76877277 -150.82779568 318.27268384 -174.27880859 323.46166992 C-175.73601318 323.78228394 -175.73601318 323.78228394 -177.22265625 324.109375 C-178.50281616 324.40279785 -178.50281616 324.40279785 -179.80883789 324.70214844 C-182 325 -182 325 -185 324 C-168.21433234 306.30603108 -145.83929081 295.62198659 -123 288 C-121.87335938 287.61199219 -120.74671875 287.22398437 -119.5859375 286.82421875 C-98.35238264 279.8628381 -75.80392588 277.30927853 -53.5625 276.4375 C-38.63277704 275.82600118 -25.62759491 273.25143016 -14 263 C-3.93639156 251.72875855 -0.858054 239.08278712 -0.84178162 224.27467346 C-0.83684364 223.31314124 -0.83190566 222.35160901 -0.82681805 221.36093944 C-0.8114975 218.14891248 -0.8030972 214.93690542 -0.79467773 211.72485352 C-0.78509493 209.41842983 -0.77508461 207.11200789 -0.76467896 204.80558777 C-0.73766743 198.5500146 -0.71663754 192.29443392 -0.69667697 186.03883481 C-0.67479428 179.49917818 -0.64741676 172.95954462 -0.62062073 166.41990662 C-0.576232 155.44539457 -0.53555313 144.47087299 -0.49731445 133.49633789 C-0.4579263 122.19457068 -0.41649216 110.892814 -0.37231445 99.59106445 C-0.36822804 98.5453876 -0.36822804 98.5453876 -0.36405908 97.47858597 C-0.35037906 93.9812076 -0.33665889 90.4838294 -0.32291877 86.98645127 C-0.20905645 57.9909898 -0.10229686 28.99550453 0 0 Z " fill="#A2A4A4" transform="translate(480,123)"/>
<path d="M0 0 C0.74507812 0.00451172 1.49015625 0.00902344 2.2578125 0.01367188 C4.0885764 0.02540754 5.91929873 0.0433415 7.75 0.0625 C7.75331015 1.25925543 7.75662029 2.45601086 7.76003075 3.6890316 C7.83910896 32.1202258 7.92835178 60.55137574 8.03005161 88.98249795 C8.04256995 92.48458822 8.05500281 95.98667878 8.06738281 99.48876953 C8.06984881 100.18595028 8.0723148 100.88313104 8.07485552 101.60143848 C8.11454078 112.87875851 8.14730682 124.15608852 8.17749982 135.43343751 C8.20865287 147.01162315 8.24742508 158.58976482 8.29279006 170.16790354 C8.31801976 176.66838484 8.33981155 183.16883643 8.35334396 189.66935349 C8.36619621 195.7907836 8.38828493 201.91211164 8.41738319 208.03348541 C8.42643421 210.27717865 8.43214341 212.52088831 8.43421364 214.76459885 C8.43755366 217.83531758 8.4530782 220.90574997 8.4715271 223.97640991 C8.46959237 224.8577634 8.46765763 225.73911689 8.46566427 226.64717805 C8.58318842 239.79240753 12.03696991 251.81949385 21.125 261.625 C21.99125 262.429375 22.8575 263.23375 23.75 264.0625 C24.61625 264.8875 25.4825 265.7125 26.375 266.5625 C37.54774049 275.62070648 51.57062412 276.2229552 65.31170654 276.83853149 C108.7680955 278.86168848 155.80275966 289.75103889 188.75 320.0625 C190.11431357 321.70390307 191.45586064 323.36522016 192.75 325.0625 C186.83966439 324.08524134 180.93145594 323.09935627 175.03125 322.0625 C174.07734375 321.8975 173.1234375 321.7325 172.140625 321.5625 C170.24387658 321.23441379 168.34799828 320.9012483 166.453125 320.5625 C147.64408322 317.34384044 128.99022437 316.69055033 109.9375 316.75 C108.72456268 316.75182281 107.51162537 316.75364563 106.26193237 316.75552368 C87.57447042 316.80274726 69.2711004 317.40797716 50.75 320.0625 C50.09572021 320.15442627 49.44144043 320.24635254 48.76733398 320.34106445 C34.11245891 322.40041531 19.46263708 324.61955256 5.02270508 327.89428711 C-2.56915651 329.55514192 -9.51409034 330.23398825 -16.45703125 326.33984375 C-20.24146641 323.64374289 -22.76691714 320.51174858 -24.25 316.0625 C-24.34527818 314.37161288 -24.38270047 312.67720359 -24.38701439 310.98363972 C-24.39208893 309.9271313 -24.39716347 308.87062289 -24.40239179 307.78209907 C-24.40288955 306.61733722 -24.40338731 305.45257537 -24.40390015 304.2525177 C-24.41047353 302.40116503 -24.41047353 302.40116503 -24.4171797 300.5124113 C-24.42825072 297.07994596 -24.43479412 293.64752624 -24.43936086 290.21504962 C-24.44531613 286.5155189 -24.45692615 282.81600498 -24.46765137 279.1164856 C-24.49217675 270.17880648 -24.50680255 261.24112179 -24.51971143 252.30341938 C-24.52342321 249.77924765 -24.52739645 247.25507647 -24.5314641 244.73090529 C-24.55670003 229.05784925 -24.57875424 213.38479234 -24.59119225 197.71172047 C-24.59412197 194.08116973 -24.59708363 190.45061903 -24.60009766 186.82006836 C-24.60084371 185.91770707 -24.60158976 185.01534578 -24.60235842 184.08564021 C-24.61501271 169.46712639 -24.64823673 154.84873418 -24.68989949 140.23027722 C-24.73231834 125.22357811 -24.7558872 110.21694127 -24.76111281 95.21018237 C-24.76452694 86.78370832 -24.77628234 78.35742434 -24.80921555 69.93100929 C-24.83721655 62.75478821 -24.84821522 55.57879616 -24.83702008 48.40252469 C-24.83183352 44.74167299 -24.83471923 41.08130089 -24.85948563 37.42051888 C-24.88612781 33.44928473 -24.87391746 29.47870416 -24.85800171 25.50740051 C-24.87882484 23.77698815 -24.87882484 23.77698815 -24.90006864 22.01161796 C-24.83272108 15.19816812 -23.96300009 10.20770376 -19.25 5.0625 C-13.16453821 0.38837812 -7.42311195 -0.08524775 0 0 Z " fill="#A2A4A4" transform="translate(24.25,122.9375)"/>
<path d="M0 0 C6.33333333 0 12.66666667 0 19 0 C19.66 2.31 20.32 4.62 21 7 C21.99 4.69 22.98 2.38 24 0 C26.31 0 28.62 0 31 0 C31.66 2.31 32.32 4.62 33 7 C33.66 4.69 34.32 2.38 35 0 C36.98 0 38.96 0 41 0 C39.41463415 14.58536585 39.41463415 14.58536585 36 18 C34.00041636 18.04080783 31.99954746 18.04254356 30 18 C28.515 13.545 28.515 13.545 27 9 C26.01 11.97 25.02 14.94 24 18 C22.02 18 20.04 18 18 18 C15.94637945 12.91059256 14.56820748 8.45479185 14 3 C13.34 3 12.68 3 12 3 C11.67 3.66 11.34 4.32 11 5 C9.68 5 8.36 5 7 5 C6.67 9.29 6.34 13.58 6 18 C4.02 18 2.04 18 0 18 C0 12.06 0 6.12 0 0 Z " fill="#A2A4A4" transform="translate(290,25)"/>
<path d="M0 0 C2.97 0 5.94 0 9 0 C10.32 4.29 11.64 8.58 13 13 C14.8272911 10.25906335 15.93698178 7.86174676 17.125 4.8125 C17.47820312 3.91144531 17.83140625 3.01039062 18.1953125 2.08203125 C18.46085937 1.39496094 18.72640625 0.70789063 19 0 C21.64 0 24.28 0 27 0 C27 7.59 27 15.18 27 23 C25.02 23 23.04 23 21 23 C20.505 18.05 20.505 18.05 20 13 C18.68 16.3 17.36 19.6 16 23 C14.02 23 12.04 23 10 23 C9.01 20.03 8.02 17.06 7 14 C6.67 16.97 6.34 19.94 6 23 C4.02 23 2.04 23 0 23 C0 15.41 0 7.82 0 0 Z " fill="#A1A3A3" transform="translate(239,20)"/>
<path d="M0 0 C1.98 0 3.96 0 6 0 C6.33 2.31 6.66 4.62 7 7 C8.093125 6.938125 9.18625 6.87625 10.3125 6.8125 C14 7 14 7 15.875 8.375 C18.44359821 12.08519741 18.35594818 15.61576023 18 20 C16.99124788 22.81009519 16.66604583 23.66697708 14 25 C9.33091139 25.13996069 4.67201378 25.04247285 0 25 C0 16.75 0 8.5 0 0 Z M8 11 C5.65026182 12.89755144 5.65026182 12.89755144 5.875 16.125 C5.91625 17.07375 5.9575 18.0225 6 19 C7.98 19.99 7.98 19.99 10 21 C12.36692966 18.15173402 12.36692966 18.15173402 11.625 14.8125 C11.41875 13.884375 11.2125 12.95625 11 12 C10.01 11.67 9.02 11.34 8 11 Z " fill="#A2A4A4" transform="translate(115,18)"/>
<path d="M0 0 C13.46256557 -0.37052933 13.46256557 -0.37052933 15.88671875 1.30078125 C17.79687183 4.21627806 18 6.55177685 18 10 C16 12.9375 16 12.9375 13 15 C9.1875 15.3125 9.1875 15.3125 6 15 C6 17.64 6 20.28 6 23 C4.02 23 2.04 23 0 23 C0 15.41 0 7.82 0 0 Z M6 4 C6 6.31 6 8.62 6 11 C7.65 10.67 9.3 10.34 11 10 C11.33 9.01 11.66 8.02 12 7 C10.68798827 5.43750191 10.68798827 5.43750191 9 4 C8.01 4 7.02 4 6 4 Z " fill="#A2A3A3" transform="translate(17,20)"/>
<path d="M0 0 C1.46566406 -0.03867187 1.46566406 -0.03867187 2.9609375 -0.078125 C5.625 0.25 5.625 0.25 7.46484375 1.28515625 C9.27662814 4.35359917 8.93814044 7.48722036 8.8125 10.9375 C8.79219727 11.9903418 8.79219727 11.9903418 8.77148438 13.06445312 C8.73620182 14.79329829 8.68239583 16.52174765 8.625 18.25 C6.16637599 18.30383848 3.7089245 18.34359038 1.25 18.375 C0.20199219 18.40013672 0.20199219 18.40013672 -0.8671875 18.42578125 C-2.70397486 18.44344267 -4.54101963 18.35303261 -6.375 18.25 C-8.375 16.25 -8.375 16.25 -8.6875 12.75 C-8.584375 11.595 -8.48125 10.44 -8.375 9.25 C-5.28611478 7.19074319 -4.66564073 7.0109626 -1.1875 7.125 C0.6996875 7.186875 0.6996875 7.186875 2.625 7.25 C2.625 6.59 2.625 5.93 2.625 5.25 C-0.015 5.25 -2.655 5.25 -5.375 5.25 C-5.9375 3.3125 -5.9375 3.3125 -6.375 1.25 C-4.64280072 -0.48219928 -2.35473192 0.03708239 0 0 Z M-2.375 11.25 C-2.045 12.24 -1.715 13.23 -1.375 14.25 C-0.055 13.59 1.265 12.93 2.625 12.25 C2.625 11.59 2.625 10.93 2.625 10.25 C-0.3004644 10.0263932 -0.3004644 10.0263932 -2.375 11.25 Z " fill="#A2A4A4" transform="translate(462.375,24.75)"/>
<path d="M0 0 C1.46566406 -0.03867187 1.46566406 -0.03867187 2.9609375 -0.078125 C5.625 0.25 5.625 0.25 7.46484375 1.28515625 C9.27662814 4.35359917 8.93814044 7.48722036 8.8125 10.9375 C8.79219727 11.9903418 8.79219727 11.9903418 8.77148438 13.06445312 C8.73620182 14.79329829 8.68239583 16.52174765 8.625 18.25 C6.16637599 18.30383848 3.7089245 18.34359038 1.25 18.375 C0.20199219 18.40013672 0.20199219 18.40013672 -0.8671875 18.42578125 C-2.70397486 18.44344267 -4.54101963 18.35303261 -6.375 18.25 C-8.375 16.25 -8.375 16.25 -8.6875 12.75 C-8.584375 11.595 -8.48125 10.44 -8.375 9.25 C-5.28611478 7.19074319 -4.66564073 7.0109626 -1.1875 7.125 C0.6996875 7.186875 0.6996875 7.186875 2.625 7.25 C2.625 6.59 2.625 5.93 2.625 5.25 C-0.015 5.25 -2.655 5.25 -5.375 5.25 C-5.9375 3.3125 -5.9375 3.3125 -6.375 1.25 C-4.64280072 -0.48219928 -2.35473192 0.03708239 0 0 Z M-2.375 11.25 C-2.045 12.24 -1.715 13.23 -1.375 14.25 C-0.055 13.59 1.265 12.93 2.625 12.25 C2.625 11.59 2.625 10.93 2.625 10.25 C-0.3004644 10.0263932 -0.3004644 10.0263932 -2.375 11.25 Z " fill="#A2A4A4" transform="translate(364.375,24.75)"/>
<path d="M0 0 C1.46566406 -0.03867187 1.46566406 -0.03867187 2.9609375 -0.078125 C5.625 0.25 5.625 0.25 7.46484375 1.28515625 C9.27662814 4.35359917 8.93814044 7.48722036 8.8125 10.9375 C8.79219727 11.9903418 8.79219727 11.9903418 8.77148438 13.06445312 C8.73620182 14.79329829 8.68239583 16.52174765 8.625 18.25 C6.16637599 18.30383848 3.7089245 18.34359038 1.25 18.375 C0.20199219 18.40013672 0.20199219 18.40013672 -0.8671875 18.42578125 C-2.70397486 18.44344267 -4.54101963 18.35303261 -6.375 18.25 C-8.375 16.25 -8.375 16.25 -8.6875 12.75 C-8.584375 11.595 -8.48125 10.44 -8.375 9.25 C-5.28611478 7.19074319 -4.66564073 7.0109626 -1.1875 7.125 C0.6996875 7.186875 0.6996875 7.186875 2.625 7.25 C2.625 6.59 2.625 5.93 2.625 5.25 C-0.015 5.25 -2.655 5.25 -5.375 5.25 C-5.9375 3.3125 -5.9375 3.3125 -6.375 1.25 C-4.64280072 -0.48219928 -2.35473192 0.03708239 0 0 Z M-2.375 11.25 C-2.045 12.24 -1.715 13.23 -1.375 14.25 C-0.055 13.59 1.265 12.93 2.625 12.25 C2.625 11.59 2.625 10.93 2.625 10.25 C-0.3004644 10.0263932 -0.3004644 10.0263932 -2.375 11.25 Z " fill="#A2A4A4" transform="translate(277.375,24.75)"/>
<path d="M0 0 C1.46566406 -0.03867187 1.46566406 -0.03867187 2.9609375 -0.078125 C5.625 0.25 5.625 0.25 7.46484375 1.28515625 C9.27662814 4.35359917 8.93814044 7.48722036 8.8125 10.9375 C8.79219727 11.9903418 8.79219727 11.9903418 8.77148438 13.06445312 C8.73620182 14.79329829 8.68239583 16.52174765 8.625 18.25 C6.16637599 18.30383848 3.7089245 18.34359038 1.25 18.375 C0.20199219 18.40013672 0.20199219 18.40013672 -0.8671875 18.42578125 C-2.70397486 18.44344267 -4.54101963 18.35303261 -6.375 18.25 C-8.375 16.25 -8.375 16.25 -8.6875 12.75 C-8.584375 11.595 -8.48125 10.44 -8.375 9.25 C-5.28611478 7.19074319 -4.66564073 7.0109626 -1.1875 7.125 C0.6996875 7.186875 0.6996875 7.186875 2.625 7.25 C2.625 6.59 2.625 5.93 2.625 5.25 C-0.015 5.25 -2.655 5.25 -5.375 5.25 C-5.9375 3.3125 -5.9375 3.3125 -6.375 1.25 C-4.64280072 -0.48219928 -2.35473192 0.03708239 0 0 Z M-2.375 11.25 C-2.045 12.24 -1.715 13.23 -1.375 14.25 C-0.055 13.59 1.265 12.93 2.625 12.25 C2.625 11.59 2.625 10.93 2.625 10.25 C-0.3004644 10.0263932 -0.3004644 10.0263932 -2.375 11.25 Z " fill="#A2A4A4" transform="translate(217.375,24.75)"/>
<path d="M0 0 C1.46566406 -0.03867187 1.46566406 -0.03867187 2.9609375 -0.078125 C5.625 0.25 5.625 0.25 7.46484375 1.28515625 C9.27662814 4.35359917 8.93814044 7.48722036 8.8125 10.9375 C8.79219727 11.9903418 8.79219727 11.9903418 8.77148438 13.06445312 C8.73620182 14.79329829 8.68239583 16.52174765 8.625 18.25 C6.16637599 18.30383848 3.7089245 18.34359038 1.25 18.375 C0.20199219 18.40013672 0.20199219 18.40013672 -0.8671875 18.42578125 C-2.70397486 18.44344267 -4.54101963 18.35303261 -6.375 18.25 C-8.375 16.25 -8.375 16.25 -8.6875 12.75 C-8.584375 11.595 -8.48125 10.44 -8.375 9.25 C-5.28611478 7.19074319 -4.66564073 7.0109626 -1.1875 7.125 C0.6996875 7.186875 0.6996875 7.186875 2.625 7.25 C2.625 6.59 2.625 5.93 2.625 5.25 C-0.015 5.25 -2.655 5.25 -5.375 5.25 C-5.9375 3.3125 -5.9375 3.3125 -6.375 1.25 C-4.64280072 -0.48219928 -2.35473192 0.03708239 0 0 Z M-2.375 11.25 C-2.045 12.24 -1.715 13.23 -1.375 14.25 C-0.055 13.59 1.265 12.93 2.625 12.25 C2.625 11.59 2.625 10.93 2.625 10.25 C-0.3004644 10.0263932 -0.3004644 10.0263932 -2.375 11.25 Z " fill="#A2A4A4" transform="translate(187.375,24.75)"/>
<path d="M0 0 C2.413125 -0.0825 4.82625 -0.165 7.3125 -0.25 C8.06829346 -0.28641602 8.82408691 -0.32283203 9.6027832 -0.36035156 C12.65715449 -0.41107368 14.54003676 -0.36505019 16.96875 1.5625 C18.38024578 4.89876276 18.28774536 7.64116713 18.1875 11.25 C18.16042969 12.51328125 18.13335937 13.7765625 18.10546875 15.078125 C18.07066406 16.04234375 18.03585938 17.0065625 18 18 C16.02 18 14.04 18 12 18 C11.95101562 17.14535156 11.90203125 16.29070313 11.8515625 15.41015625 C11.77679688 14.30542969 11.70203125 13.20070313 11.625 12.0625 C11.55539063 10.96035156 11.48578125 9.85820313 11.4140625 8.72265625 C11.27742188 7.82417969 11.14078125 6.92570312 11 6 C10.34 5.67 9.68 5.34 9 5 C8.01 5.495 8.01 5.495 7 6 C6.53101037 8.8159849 6.53101037 8.8159849 6.375 12.0625 C6.30023438 13.16722656 6.22546875 14.27195312 6.1484375 15.41015625 C6.09945312 16.26480469 6.05046875 17.11945312 6 18 C4.02 18 2.04 18 0 18 C0 12.06 0 6.12 0 0 Z " fill="#A1A3A3" transform="translate(58,25)"/>
<path d="M0 0 C2.77491292 0.5559091 3.68818817 1.1951102 5.33984375 3.46875 C6.02734375 7.15625 6.02734375 7.15625 6.33984375 10.46875 C2.37984375 10.46875 -1.58015625 10.46875 -5.66015625 10.46875 C-3.12587187 13.68400355 -3.12587187 13.68400355 -0.6171875 13.54296875 C0.09050781 13.41535156 0.79820312 13.28773437 1.52734375 13.15625 C2.78546875 12.929375 4.04359375 12.7025 5.33984375 12.46875 C5.38256475 14.13486905 5.38048207 15.80257885 5.33984375 17.46875 C3.62040074 19.18819301 1.43569152 18.76220984 -0.91015625 18.84375 C-4.91260973 18.79170249 -6.37520759 18.64754132 -9.84765625 16.46875 C-12.18622404 12.59801711 -12.57498915 9.87415891 -11.66015625 5.46875 C-9.07098432 -0.18035238 -5.6481257 -0.06794738 0 0 Z M-2.66015625 4.46875 C-3.65015625 5.45875 -4.64015625 6.44875 -5.66015625 7.46875 C-3.68015625 7.46875 -1.70015625 7.46875 0.33984375 7.46875 C-0.65015625 6.47875 -1.64015625 5.48875 -2.66015625 4.46875 Z " fill="#A2A3A3" transform="translate(415.66015625,24.53125)"/>
<path d="M0 0 C2.77491292 0.5559091 3.68818817 1.1951102 5.33984375 3.46875 C6.02734375 7.15625 6.02734375 7.15625 6.33984375 10.46875 C2.37984375 10.46875 -1.58015625 10.46875 -5.66015625 10.46875 C-3.12587187 13.68400355 -3.12587187 13.68400355 -0.6171875 13.54296875 C0.09050781 13.41535156 0.79820313 13.28773437 1.52734375 13.15625 C2.78546875 12.929375 4.04359375 12.7025 5.33984375 12.46875 C5.38256475 14.13486905 5.38048207 15.80257885 5.33984375 17.46875 C3.62040074 19.18819301 1.43569152 18.76220984 -0.91015625 18.84375 C-4.91260973 18.79170249 -6.37520759 18.64754132 -9.84765625 16.46875 C-12.18622404 12.59801711 -12.57498915 9.87415891 -11.66015625 5.46875 C-9.07098432 -0.18035238 -5.6481257 -0.06794738 0 0 Z M-2.66015625 4.46875 C-3.65015625 5.45875 -4.64015625 6.44875 -5.66015625 7.46875 C-3.68015625 7.46875 -1.70015625 7.46875 0.33984375 7.46875 C-0.65015625 6.47875 -1.64015625 5.48875 -2.66015625 4.46875 Z " fill="#A2A3A3" transform="translate(90.66015625,24.53125)"/>
<path d="M0 0 C2.77491292 0.5559091 3.68818817 1.1951102 5.33984375 3.46875 C6.02734375 7.15625 6.02734375 7.15625 6.33984375 10.46875 C2.37984375 10.46875 -1.58015625 10.46875 -5.66015625 10.46875 C-3.12587187 13.68400355 -3.12587187 13.68400355 -0.6171875 13.54296875 C0.09050781 13.41535156 0.79820313 13.28773437 1.52734375 13.15625 C2.78546875 12.929375 4.04359375 12.7025 5.33984375 12.46875 C5.38256475 14.13486905 5.38048207 15.80257885 5.33984375 17.46875 C3.62040074 19.18819301 1.43569152 18.76220984 -0.91015625 18.84375 C-4.91260973 18.79170249 -6.37520759 18.64754132 -9.84765625 16.46875 C-12.18622404 12.59801711 -12.57498915 9.87415891 -11.66015625 5.46875 C-9.07098432 -0.18035238 -5.6481257 -0.06794738 0 0 Z M-2.66015625 4.46875 C-3.65015625 5.45875 -4.64015625 6.44875 -5.66015625 7.46875 C-3.68015625 7.46875 -1.70015625 7.46875 0.33984375 7.46875 C-0.65015625 6.47875 -1.64015625 5.48875 -2.66015625 4.46875 Z " fill="#A2A3A3" transform="translate(48.66015625,24.53125)"/>
<path d="M0 0 C0.99773437 0.02320312 1.99546875 0.04640625 3.0234375 0.0703125 C4.52777344 0.09738281 4.52777344 0.09738281 6.0625 0.125 C6.83335937 0.14820312 7.60421875 0.17140625 8.3984375 0.1953125 C9.0234375 2.0703125 9.0234375 2.0703125 9.3984375 4.1953125 C8.7384375 4.8553125 8.0784375 5.5153125 7.3984375 6.1953125 C6.0784375 6.1953125 4.7584375 6.1953125 3.3984375 6.1953125 C4.3678125 6.5871875 5.3371875 6.9790625 6.3359375 7.3828125 C9.3984375 9.1953125 9.3984375 9.1953125 10.4609375 11.6328125 C10.38112893 14.90496378 9.71785578 15.90957871 7.3984375 18.1953125 C4.48046875 18.5859375 4.48046875 18.5859375 1.2109375 18.4453125 C0.12425781 18.40921875 -0.96242188 18.373125 -2.08203125 18.3359375 C-3.32919922 18.26632813 -3.32919922 18.26632813 -4.6015625 18.1953125 C-4.6015625 16.2153125 -4.6015625 14.2353125 -4.6015625 12.1953125 C-1.9615625 12.5253125 0.6784375 12.8553125 3.3984375 13.1953125 C2.2640625 12.6796875 1.1296875 12.1640625 -0.0390625 11.6328125 C-3.32324635 9.77797992 -3.52444742 9.45841099 -4.6640625 5.5703125 C-4.58857059 1.49374912 -4.17320982 0.31330404 0 0 Z " fill="#A2A4A4" transform="translate(428.6015625,24.8046875)"/>
<path d="M0 0 C1.98 0 3.96 0 6 0 C6.08690253 4.43737712 6.14035926 8.87453634 6.1875 13.3125 C6.21263672 14.57513672 6.23777344 15.83777344 6.26367188 17.13867188 C6.27817383 18.95141602 6.27817383 18.95141602 6.29296875 20.80078125 C6.31653442 22.47394409 6.31653442 22.47394409 6.34057617 24.1809082 C6 27 6 27 4.609375 28.86914062 C1.64001171 30.95562284 -1.48636181 30.17280188 -5 30 C-5 28.35 -5 26.7 -5 25 C-3.35 25 -1.7 25 0 25 C0 16.75 0 8.5 0 0 Z " fill="#A1A3A3" transform="translate(169,20)"/>
<path d="M0 0 C1.65 0 3.3 0 5 0 C5 1.32 5 2.64 5 4 C6.65 4 8.3 4 10 4 C10 5.32 10 6.64 10 8 C8.35 8 6.7 8 5 8 C5.33 10.97 5.66 13.94 6 17 C7.32 17 8.64 17 10 17 C10 18.65 10 20.3 10 22 C8.54207116 22.05399736 7.08357288 22.09279177 5.625 22.125 C4.40683594 22.15980469 4.40683594 22.15980469 3.1640625 22.1953125 C1 22 1 22 -1 20 C-1.1953125 17.1796875 -1.1953125 17.1796875 -1.125 13.875 C-1.10695313 12.77929688 -1.08890625 11.68359375 -1.0703125 10.5546875 C-1.04710937 9.71164063 -1.02390625 8.86859375 -1 8 C-1.99 8 -2.98 8 -4 8 C-3.67 6.68 -3.34 5.36 -3 4 C-2.34 4 -1.68 4 -1 4 C-0.67 2.68 -0.34 1.36 0 0 Z " fill="#A4A6A6" transform="translate(443,21)"/>
<path d="M0 0 C1.65 0 3.3 0 5 0 C5 1.32 5 2.64 5 4 C6.65 4 8.3 4 10 4 C10 5.32 10 6.64 10 8 C8.35 8 6.7 8 5 8 C5.33 10.97 5.66 13.94 6 17 C7.32 17 8.64 17 10 17 C10 18.65 10 20.3 10 22 C8.54207116 22.05399736 7.08357288 22.09279177 5.625 22.125 C4.40683594 22.15980469 4.40683594 22.15980469 3.1640625 22.1953125 C1 22 1 22 -1 20 C-1.1953125 17.1796875 -1.1953125 17.1796875 -1.125 13.875 C-1.10695313 12.77929688 -1.08890625 11.68359375 -1.0703125 10.5546875 C-1.04710937 9.71164063 -1.02390625 8.86859375 -1 8 C-1.99 8 -2.98 8 -4 8 C-3.67 6.68 -3.34 5.36 -3 4 C-2.34 4 -1.68 4 -1 4 C-0.67 2.68 -0.34 1.36 0 0 Z " fill="#A4A6A6" transform="translate(345,21)"/>
<path d="M0 0 C1.65 0 3.3 0 5 0 C5 1.32 5 2.64 5 4 C6.65 4 8.3 4 10 4 C10 5.32 10 6.64 10 8 C8.35 8 6.7 8 5 8 C5.33 10.97 5.66 13.94 6 17 C7.32 17 8.64 17 10 17 C10 18.65 10 20.3 10 22 C8.54207116 22.05399736 7.08357288 22.09279177 5.625 22.125 C4.40683594 22.15980469 4.40683594 22.15980469 3.1640625 22.1953125 C1 22 1 22 -1 20 C-1.1953125 17.1796875 -1.1953125 17.1796875 -1.125 13.875 C-1.10695312 12.77929688 -1.08890625 11.68359375 -1.0703125 10.5546875 C-1.04710937 9.71164063 -1.02390625 8.86859375 -1 8 C-1.99 8 -2.98 8 -4 8 C-3.67 6.68 -3.34 5.36 -3 4 C-2.34 4 -1.68 4 -1 4 C-0.67 2.68 -0.34 1.36 0 0 Z " fill="#A4A6A6" transform="translate(148,21)"/>
<path d="M0 0 C1.98 0 3.96 0 6 0 C6 6.27 6 12.54 6 19 C9.3 19 12.6 19 16 19 C16 20.32 16 21.64 16 23 C10.72 23 5.44 23 0 23 C0 15.41 0 7.82 0 0 Z " fill="#A1A3A3" transform="translate(386,20)"/>
<path d="M0 0 C1.98 0 3.96 0 6 0 C6 8.25 6 16.5 6 25 C4.02 25 2.04 25 0 25 C0 16.75 0 8.5 0 0 Z " fill="#A2A3A3" transform="translate(200,18)"/>
<path d="M0 0 C4.33333333 0 8.66666667 0 13 0 C12.67 1.65 12.34 3.3 12 5 C10.35 5 8.7 5 7 5 C6.67 9.29 6.34 13.58 6 18 C4.02 18 2.04 18 0 18 C0 12.06 0 6.12 0 0 Z " fill="#A1A3A3" transform="translate(475,25)"/>
<path d="M0 0 C4.33333333 0 8.66666667 0 13 0 C12.67 1.65 12.34 3.3 12 5 C10.35 5 8.7 5 7 5 C6.67 9.29 6.34 13.58 6 18 C4.02 18 2.04 18 0 18 C0 12.06 0 6.12 0 0 Z " fill="#A1A3A3" transform="translate(100,25)"/>
<path d="M0 0 C1.98 0 3.96 0 6 0 C6 5.94 6 11.88 6 18 C4.02 18 2.04 18 0 18 C0 12.06 0 6.12 0 0 Z " fill="#A2A3A3" transform="translate(490,25)"/>
<path d="M0 0 C1.98 0 3.96 0 6 0 C6 5.94 6 11.88 6 18 C4.02 18 2.04 18 0 18 C0 12.06 0 6.12 0 0 Z " fill="#A2A3A3" transform="translate(333,25)"/>
<path d="M0 0 C1.98 0 3.96 0 6 0 C6 5.94 6 11.88 6 18 C4.02 18 2.04 18 0 18 C0 12.06 0 6.12 0 0 Z " fill="#A2A3A3" transform="translate(136,25)"/>
<path d="M0 0 C1.98 0 3.96 0 6 0 C6 1.65 6 3.3 6 5 C4.02 5 2.04 5 0 5 C0 3.35 0 1.7 0 0 Z " fill="#A0A4A4" transform="translate(490,18)"/>
<path d="M0 0 C1.98 0 3.96 0 6 0 C6 1.65 6 3.3 6 5 C4.02 5 2.04 5 0 5 C0 3.35 0 1.7 0 0 Z " fill="#A0A4A4" transform="translate(333,18)"/>
<path d="M0 0 C1.98 0 3.96 0 6 0 C6 1.65 6 3.3 6 5 C4.02 5 2.04 5 0 5 C0 3.35 0 1.7 0 0 Z " fill="#A0A4A4" transform="translate(136,18)"/>
</svg>
